#!OML:ASF E:\Steps\Project 1\Capture day 1\Session 2\Subject.ASF
:FULLY-SPECIFIED
:DEGREES
166
root 22.9782 16.3552 30.4935 -152.139 1.6057 177.617
lowerback -30.4873 -2.43763 -6.16147
upperback -1.37125 -0.193384 -0.493418
thorax 14.514 -0.146795 2.81217
lowerneck 1.74399 -1.71732 -4.9738
upperneck 6.39042 -2.42371 11.6054
head 1.78728 -0.904449 4.28928
rclavicle 7.65321e-015 -3.57812e-015
rhumerus -37.3237 -19.957 -77.8835
rradius 31.7352
rwrist -2.78277
rhand -8.31404 -54.6096
rfingers 7.12502
rthumb 17.6067 -83.8324
lclavicle 7.65321e-015 -3.57812e-015
lhumerus -29.4252 8.33212 79.597
lradius 19.4717
lwrist -6.95863
lhand -21.5128 -9.53483
lfingers 7.12502
lthumb 4.87919 20.389
rfemur -24.3107 5.61678 19.9323
rtibia 9.59721
rfoot -20.6944 -7.93271
rtoes -35.3452
lfemur -24.7349 -8.59351 -18.5635
ltibia 9.11335
lfoot -9.07693 -0.166044
ltoes -26.0274
167
root 22.9896 16.3513 30.4949 -152.134 1.53922 177.506
lowerback -30.3482 -2.60942 -6.36454
upperback -1.42996 -0.366561 -0.420662
thorax 14.3992 -0.231888 2.93256
lowerneck 1.74918 -1.6928 -5.0885
upperneck 6.45957 -2.3988 11.5308
head 1.80522 -0.897196 4.2862
rclavicle 2.98177e-015 2.88238e-014
rhumerus -37.342 -19.6749 -77.94
rradius 31.8364
rwrist -2.92443
rhand -8.29125 -54.7396
rfingers 7.12502
rthumb 17.6286 -83.9605
lclavicle 2.98177e-015 2.88238e-014
lhumerus -29.6291 8.69044 79.4303
lradius 19.2444
lwrist -7.21826
lhand -23.2235 -10.5214
lfingers 7.12502
lthumb 3.22725 19.4339
rfemur -24.3382 5.81846 19.8189
rtibia 9.66265
rfoot -20.832 -8.12361
rtoes -35.003
lfemur -24.8901 -8.6545 -18.5966
ltibia 9.412
lfoot -9.03596 -0.264392
ltoes -25.0145
168
root 23.0009 16.3536 30.4879 -152.402 1.78643 177.528
lowerback -30.0698 -2.52261 -6.40825
upperback -1.36958 -0.273179 -0.477021
thorax 14.3347 -0.200985 2.93273
lowerneck 1.54617 -1.7009 -5.04046
upperneck 6.63492 -2.41582 11.5169
head 1.89122 -0.892851 4.27267
rclavicle 1.68967e-015 2.22639e-014
rhumerus -37.2889 -19.6962 -78.0995
rradius 31.8876
rwrist -2.99599
rhand -8.35507 -55.2646
rfingers 7.12502
rthumb 17.5672 -84.491
lclavicle 1.68967e-015 2.22639e-014
lhumerus -29.7286 8.71245 79.2555
lradius 19.0531
lwrist -7.32758
lhand -21.5421 -9.65051
lfingers 7.12502
lthumb 4.85096 20.274
rfemur -24.2261 5.96617 19.8812
rtibia 10.0824
rfoot -21.2219 -7.89617
rtoes -33.7953
lfemur -24.5568 -8.53806 -18.6432
ltibia 9.52409
lfoot -9.16057 -0.225045
ltoes -23.9198
169
root 23.0115 16.342 30.4866 -152.144 2.00614 177.492
lowerback -30.3448 -2.51104 -6.37466
upperback -1.37951 -0.212691 -0.589725
thorax 14.4403 -0.163885 2.81508
lowerneck 1.29871 -1.68295 -4.94138
upperneck 6.73804 -2.39507 11.497
head 1.95962 -0.870749 4.24875
rclavicle -1.09332e-014 9.93923e-015
rhumerus -37.173 -19.8084 -78.3445
rradius 31.9041
rwrist -2.93016
rhand -8.2796 -55.6593
rfingers 7.12502
rthumb 17.6398 -84.8792
lclavicle -1.09332e-014 9.93923e-015
lhumerus -29.6717 8.80414 78.9718
lradius 18.7789
lwrist -7.33438
lhand -22.4007 -10.58
lfingers 7.12502
lthumb 4.02188 19.3618
rfemur -24.7505 6.27567 19.7678
rtibia 10.5028
rfoot -21.4742 -7.99692
rtoes -32.7236
lfemur -24.9975 -8.26183 -18.6718
ltibia 9.87811
lfoot -9.30908 -0.50732
ltoes -22.9096
170
root 23.0255 16.3452 30.4877 -152.365 2.0144 177.399
lowerback -30.0466 -2.5738 -6.45523
upperback -1.33605 -0.296672 -0.652923
thorax 14.363 -0.210145 2.75738
lowerneck 1.39036 -1.67266 -4.8719
upperneck 6.62346 -2.37634 11.3558
head 1.90732 -0.872743 4.19414
rclavicle -1.77415e-014 4.05521e-014
rhumerus -37.1114 -19.8314 -78.5372
rradius 31.9105
rwrist -2.8877
rhand -8.07812 -55.7121
rfingers 7.12502
rthumb 17.8337 -84.9144
lclavicle -1.77415e-014 4.05521e-014
lhumerus -29.6189 8.92632 78.675
lradius 18.4308
lwrist -7.43308
lhand -21.7885 -9.88132
lfingers 7.12502
lthumb 4.61304 20.0485
rfemur -24.477 6.58154 19.6892
rtibia 10.4406
rfoot -21.5201 -8.26454
rtoes -32.2037
lfemur -24.9618 -8.20578 -18.7555
ltibia 10.2762
lfoot -9.64608 -0.52065
ltoes -24.1065
171
root 23.0343 16.341 30.4878 -152.401 2.07595 177.397
lowerback -29.9312 -2.57233 -6.38305
upperback -1.35752 -0.320573 -0.71396
thorax 14.2875 -0.21172 2.64359
lowerneck 1.58415 -1.73816 -4.89049
upperneck 6.44537 -2.42909 10.8796
head 2.03921 -0.937263 4.49516
rclavicle 2.38542e-015 -7.15625e-015
rhumerus -37.1029 -19.8996 -78.6769
rradius 31.9232
rwrist -2.89756
rhand -8.00835 -55.5725
rfingers 7.12502
rthumb 17.9008 -84.7687
lclavicle 2.38542e-015 -7.15625e-015
lhumerus -29.719 8.9169 78.4438
lradius 18.2582
lwrist -7.59812
lhand -21.8762 -9.58135
lfingers 7.12502
lthumb 4.52832 20.3502
rfemur -24.4709 6.78247 19.6476
rtibia 10.4757
rfoot -21.649 -8.14898
rtoes -31.049
lfemur -25.1682 -8.55572 -18.652
ltibia 10.7926
lfoot -9.85599 -0.140978
ltoes -23.989
172
root 23.0407 16.3394 30.4772 -152.613 2.2663 177.439
lowerback -29.807 -2.48121 -6.27409
upperback -1.29723 -0.253766 -0.776035
thorax 14.295 -0.181925 2.54376
lowerneck 1.59837 -1.81658 -4.96015
upperneck 6.58711 -2.54219 10.7681
head 2.09319 -0.995804 4.46856
rclavicle 4.47266e-015 -2.62396e-014
rhumerus -37.083 -19.9594 -78.8062
rradius 31.9549
rwrist -2.95371
rhand -8.10222 -55.6651
rfingers 7.12502
rthumb 17.8105 -84.8695
lclavicle 4.47266e-015 -2.62396e-014
lhumerus -29.8952 8.99921 78.248
lradius 18.1679
lwrist -7.80357
lhand -22.1432 -9.78813
lfingers 7.12502
lthumb 4.27052 20.1488
rfemur -24.1879 7.09814 19.6244
rtibia 10.4346
rfoot -21.8482 -7.94392
rtoes -29.4976
lfemur -25.0416 -8.69045 -18.6185
ltibia 11.1418
lfoot -10.2836 0.169782
ltoes -25.0639
173
root 23.0524 16.3378 30.4748 -152.675 2.33187 177.392
lowerback -29.7456 -2.54177 -6.37997
upperback -1.28032 -0.311247 -0.746745
thorax 14.2916 -0.217709 2.61007
lowerneck 1.63572 -1.87775 -5.07368
upperneck 6.7023 -2.63293 10.4886
head 2.12872 -1.05386 4.38893
rclavicle -1.63997e-015 -1.66979e-014
rhumerus -37.0133 -19.8164 -78.9021
rradius 31.9539
rwrist -3.03621
rhand -8.15779 -55.8627
rfingers 7.12502
rthumb 17.757 -85.072
lclavicle -1.63997e-015 -1.66979e-014
lhumerus -29.9802 9.17054 78.1359
lradius 17.9432
lwrist -7.96998
lhand -22.2542 -9.89149
lfingers 7.12502
lthumb 4.1633 20.0476
rfemur -24.3215 7.14784 19.6257
rtibia 10.9125
rfoot -22.2443 -7.78871
rtoes -29.1171
lfemur -25.1948 -8.66701 -18.6525
ltibia 11.6433
lfoot -10.386 -0.0343124
ltoes -24.2198
174
root 23.0631 16.3354 30.4722 -152.708 2.32524 177.359
lowerback -29.7116 -2.65528 -6.43484
upperback -1.25527 -0.460619 -0.677444
thorax 14.3189 -0.29413 2.65573
lowerneck 1.50728 -1.7836 -5.26163
upperneck 7.006 -2.55253 10.8889
head 2.01576 -0.98355 4.1152
rclavicle 2.33572e-015 -1.03368e-014
rhumerus -36.9182 -19.377 -79.07
rradius 32.0328
rwrist -3.25009
rhand -8.14356 -55.6971
rfingers 7.12502
rthumb 17.7707 -84.9051
lclavicle 2.33572e-015 -1.03368e-014
lhumerus -29.9365 9.55312 77.9654
lradius 17.6135
lwrist -8.14586
lhand -22.2227 -9.92236
lfingers 7.12502
lthumb 4.19369 20.0161
rfemur -24.1916 7.31716 19.644
rtibia 10.7653
rfoot -22.2082 -7.95507
rtoes -29.9728
lfemur -25.4362 -8.83125 -18.6281
ltibia 12.2654
lfoot -10.7186 0.351184
ltoes -26.8489
175
root 23.0741 16.3319 30.4676 -152.703 2.2873 177.326
lowerback -29.7111 -2.74845 -6.36666
upperback -1.25227 -0.602442 -0.693337
thorax 14.334 -0.35252 2.54555
lowerneck 0.607716 -1.11669 -5.05181
upperneck 7.11203 -1.65329 11.5645
head 2.12215 -0.475085 4.29937
rclavicle -3.77691e-015 -1.47101e-014
rhumerus -36.943 -18.7928 -79.4061
rradius 32.2946
rwrist -3.69866
rhand -8.15787 -55.5288
rfingers 7.12502
rthumb 17.7569 -84.7381
lclavicle -3.77691e-015 -1.47101e-014
lhumerus -29.9077 9.96268 77.6506
lradius 17.2943
lwrist -8.38363
lhand -22.2211 -9.86322
lfingers 7.12502
lthumb 4.19524 20.0752
rfemur -24.2088 7.57769 19.6431
rtibia 10.8371
rfoot -22.2244 -8.32971
rtoes -30.9428
lfemur -25.7798 -8.85478 -18.6148
ltibia 12.9413
lfoot -10.996 0.312681
ltoes -27.2074
176
root 23.0867 16.3296 30.4604 -152.788 2.25589 177.241
lowerback -29.6489 -2.79142 -6.32563
upperback -1.23654 -0.661822 -0.793466
thorax 14.3272 -0.373387 2.39178
lowerneck 0.547412 -0.954528 -4.92509
upperneck 6.83424 -1.42221 11.6451
head 2.03019 -0.36273 4.30483
rclavicle -9.14409e-015 2.06736e-014
rhumerus -37.0086 -18.517 -79.7117
rradius 32.4651
rwrist -3.98115
rhand -8.14573 -55.3223
rfingers 7.12502
rthumb 17.7686 -84.5305
lclavicle -9.14409e-015 2.06736e-014
lhumerus -29.9921 10.3043 77.2848
lradius 17.0536
lwrist -8.95477
lhand -22.4637 -9.59614
lfingers 7.12502
lthumb 3.96099 20.3468
rfemur -24.0509 6.80784 19.7706
rtibia 10.7796
rfoot -22.2176 -7.67201
rtoes -31.0103
lfemur -26.0519 -8.97786 -18.6519
ltibia 13.6809
lfoot -11.3127 0.28043
ltoes -26.8815
177
root 23.0978 16.3238 30.4465 -152.865 2.40172 177.22
lowerback -29.7313 -2.77509 -6.26243
upperback -1.16801 -0.651324 -0.847405
thorax 14.4421 -0.370369 2.3013
lowerneck 0.440901 -0.91162 -4.98264
upperneck 7.07476 -1.37528 11.4695
head 2.1144 -0.337943 4.26263
rclavicle 8.84592e-015 -5.1684e-015
rhumerus -36.9514 -18.3093 -79.9428
rradius 32.5197
rwrist -4.19609
rhand -8.27285 -55.2721
rfingers 7.12502
rthumb 17.6463 -84.4914
lclavicle 8.84592e-015 -5.1684e-015
lhumerus -30.0913 11.0318 76.8758
lradius 16.8449
lwrist -9.90951
lhand -22.0844 -10.1994
lfingers 7.12502
lthumb 4.32727 19.7363
rfemur -23.8959 5.98524 19.935
rtibia 10.6972
rfoot -22.2578 -6.69159
rtoes -30.6803
lfemur -26.26 -9.16782 -18.6504
ltibia 14.4419
lfoot -11.6385 0.56722
ltoes -27.8258
178
root 23.1058 16.3221 30.4256 -153.167 2.53262 177.223
lowerback -29.659 -2.61658 -6.19953
upperback -0.983154 -0.474547 -0.974797
thorax 14.6078 -0.304732 2.19706
lowerneck 0.261371 -0.937889 -4.83851
upperneck 7.1651 -1.41208 11.3994
head 2.17307 -0.34642 4.21631
rclavicle -3.97569e-015 -2.22639e-014
rhumerus -36.9037 -18.4946 -80.1237
rradius 32.6423
rwrist -4.41075
rhand -8.51598 -55.4807
rfingers 7.12502
rthumb 17.4123 -84.7208
lclavicle -3.97569e-015 -2.22639e-014
lhumerus -29.8317 11.1046 76.6853
lradius 16.5644
lwrist -10.3128
lhand -21.3876 -10.3031
lfingers 7.12502
lthumb 5.00013 19.6179
rfemur -23.5539 6.08963 19.957
rtibia 10.8701
rfoot -22.531 -6.5573
rtoes -30.4253
lfemur -26.0991 -9.62114 -18.6239
ltibia 15.0149
lfoot -11.8983 1.07438
ltoes -28.7449
179
root 23.1186 16.3139 30.4209 -153.01 2.46344 177.134
lowerback -29.7832 -2.62683 -6.29307
upperback -1.02555 -0.421466 -1.03098
thorax 14.6105 -0.27735 2.2074
lowerneck 0.185533 -0.960945 -4.74439
upperneck 7.3057 -1.44542 11.3629
head 2.22929 -0.352605 4.18953
rclavicle 8.15017e-015 1.15295e-014
rhumerus -37.0835 -18.8473 -80.0329
rradius 32.6996
rwrist -4.18693
rhand -8.4506 -55.4589
rfingers 7.12502
rthumb 17.4752 -84.6934
lclavicle 8.15017e-015 1.15295e-014
lhumerus -29.6959 10.8829 76.6318
lradius 16.292
lwrist -10.3913
lhand -21.1072 -9.99124
lfingers 7.12502
lthumb 5.27083 19.9232
rfemur -23.7013 6.36174 19.8513
rtibia 10.9248
rfoot -22.6081 -6.79167
rtoes -30.1772
lfemur -26.7019 -10.0038 -18.5516
ltibia 15.8628
lfoot -12.1142 1.24072
ltoes -27.9187
